<?xml version="1.0" encoding="UTF-8"?>
<svg version="1.1" viewBox="0 0 2048 2048" width="1280" height="1280" xmlns="http://www.w3.org/2000/svg">
<path transform="translate(1658,821)" d="m0 0 19 1 17 3 13 5 3 2-1 8-17 47-6-2-10-3h-14l-8 3-5 5-3 5-2 7-1 12h52l2 4 16-6 14-4 23-4 9-1h35l21 3 20 6 17 9 10 8 7 7 9 14 5 11 5 21 1 9v136h-72v-26h-2l-2 5-8 9-10 7-11 5-15 3-10 1h-15l-17-2-18-6-14-8-11-10-7-11-5-11-2-10v-20l3-13 7-13 8-9 10-7 10-5 7-3 24-5 11-1 61-1-2-10-5-10-8-7-10-4-10-2h-22l-20 4-15 6-12 7h-3l-7-15-2-1v8h-50v155h-77l-1-1v-154l-15 1-1 1-1 153h-73v-22l-14 11-12 7-18 6-15 2h-15l-21-3-16-6-11-6-9-7-8-8-9-14-5-12-4-13-2-16v-140h76l1 1 1 120 3 15 6 12 6 5 9 4 7 1h10l8-2 12-6 7-8 4-8 2-5 2-12 1-116 1-1h75l1 1v7h17l1-21 4-17 6-14 8-11 6-7 13-10 15-7 15-4zm115 216-12 2-7 3-7 6-2 6v12l4 7 7 6 11 3h13l9-2 11-6 8-9 4-8v-19l-1-1z" fill="#020101"/>
<path transform="translate(806,800)" d="m0 0h19l12 3 9 5 10 9 4 8 2 6v18l-3 9-4 7h-2l-2 4-9 7-9 4-11 2h-12l-12-2-11-5-8-6-6-8-4-9v274l-1 1h-73v-20l-11 9-14 8-11 4-22 3h-11l-18-2-15-4-12-5-11-6-9-7-10-9-9-11-8-13-5-11v-4h-2v68h-77l-1-121-3-15-4-9-4-5-8-5-7-2-10-1-14 2-12 6-7 7-7 14-2 10-1 118-1 1h-77v-220l2-1h71l1 1 1 22 9-8 13-8 15-6 12-3 7-1h27l18 4 11 4 14 8 12 11 8 10 7 14 4 13 1 5v7h2l2-9 8-16 9-13 11-12 12-9 10-6 15-6 16-4 8-1h25l16 3 13 5 11 7 8 6v-98l1-1h76l1 5 6-12 7-8 12-7zm-162 164-13 2-10 5-10 9-6 9-4 13-1 8v14l3 15 5 10 7 9 9 6 9 4 3 1h20l13-5 8-6 7-8 5-10 3-12v-24l-4-13-4-8-9-10-14-7-13-2z" fill="#FE3131"/>
<path transform="translate(994,903)" d="m0 0h26l15 3 12 4 12 6 10 8 5 5 7 8 6 10 5 12 4 16 1 9v49l5-5 6-8 10-8 14-7 18-5 11-2 11-1 61-1-2-10-5-10-7-6-8-4-13-3h-23l-19 4-16 6-11 7h-3l-9-19-9-17-6-13 1-4 8-5 21-9 22-6 17-3 10-1h35l15 2 17 4 13 5 13 7 10 8 7 7 7 10 6 13 4 12 3 20v136h-72l-1-26-6 9-10 9-14 7-10 3-17 2h-14l-22-3-16-6-13-8-10-9-7-11-2-1v34h-77l-1-122-2-12-4-9-4-6-5-4-11-4-10-1-13 2-8 3-9 7-6 8-4 10-2 12-1 116h-77l-1-1v-219l2-1h72v23l16-12 16-8 18-5zm201 134-12 2-7 3-6 5-3 6v13l4 7 8 6 10 3h14l12-4 8-5 7-8 4-8v-19l-1-1z" fill="#020101"/>
<path transform="translate(156,903)" d="m0 0h33l21 3 15 4 16 7 11 7 12 11 7 10 7 14 4 13 3 19v136h-72l-1-26-8 11-10 8-12 6-17 4-11 1h-11l-19-2-12-3-15-7-12-9-8-9-6-10-4-12-1-5v-22l3-12 5-10 10-12 10-7 12-6 14-4 16-3 11-1h60l-2-11-5-10-7-6-8-4-13-3h-23l-19 4-16 6-11 7h-3l-15-30-10-21 5-4 16-8 14-5 14-4 21-4zm14 134-14 2-9 5-5 6-2 11 2 8 7 8 9 4 5 1h14l10-3 10-6 7-8 4-8v-19l-1-1z" fill="#FE3131"/>
<path transform="translate(1740,1135)" d="m0 0h9l13 4 4 4-9 17-10-1-3 1-2 6-1 22h16l1 1v9l11-7 11-4 8-1h9l11 2 12 6 10 9 5 9 1-74h26v126h-25l-1-1-1-22-7 11-10 8-9 4-11 2h-12l-14-3-10-6-6-5-5-7-3-8-1-6v-10l4-13-9 1-1 55h-25l-3-1-5 2-6 1h-10l-10-3-5-5-4-7-2-7v-36l-7 1-2 3-7-2h-12l-6 4-3 6-1 4v39l-1 1h-25l-1-24-5 9-4 5-10 7-11 4-7 1h-12l-14-3-9-5-8-7-4-6-2-1-2 5-7 8-8 6-5 2-6 1h-10l-9-2-10-6-1 44h-25l-1-1v-112l2-1h22l2 1v7l10-7 5-2 6-1h8l9 2 9 5 8 8 4 7 4-5 7-7 10-6 9-3 7-1h10l10 2 12 5 10 9 6 10 1-23 1-1h23l1 1 1 9 7-6 8-5 5-1h7l11 2v-27l1-1h24l1 1v27h18v-18l3-16 6-10 7-6zm-265 73-8 4-5 7-1 9 3 9 6 5 5 2h9l6-3 6-7 1-4v-8l-3-7-6-5-5-2zm84 0-8 4-4 5-2 5v8l3 7 7 6 3 1h10l7-4 4-5 2-5v-7l-3-8-8-6-3-1zm138 0v31l4 4 8-1 5 16h1v-50zm91 0-8 4-4 5-2 7 1 9 4 6 5 4 4 1h9l6-3 6-7 1-4v-8l-4-8-5-4-5-2z" fill="#0B0606"/>
<path transform="translate(1897,825)" d="m0 0h77v302h-77l-1-5v-296z" fill="#030303"/>
<path transform="translate(778,906)" d="m0 0h75l1 1v220h-77v-220z" fill="#FE3131"/>
<path transform="translate(1932,1186)" d="m0 0h9l11 2 14 7 9 9 5 10 1 4v17l-5 12-8 9-10 6-9 3-6 1h-13l-11-2-12-6-9-9-5-10-1 24-1 1h-24l-1-1v-74l2-1h22l2 1 1 24 5-9 5-6 10-7 11-4zm1 22-8 4-5 6-1 2v12l3 6 5 4 5 2h9l8-4 4-6 1-3v-10l-3-6-6-5-5-2z" fill="#0B0606"/>
<path transform="translate(1876,1142)" d="m0 0h7l6 3 4 5 2 9-3 7-5 5-2 1h-11l-6-4-4-8 1-9 6-7z" fill="#0E0707"/>
</svg>
